<svg xmlns="http://www.w3.org/2000/svg" width="20.718" height="22.426" viewBox="0 0 20.718 22.426"><defs><style>.a{fill:#424242;}</style></defs><path class="a" d="M13.973,11.739c-.573,4.614-3.5,5.435-3.5,8.643a3.632,3.632,0,0,0,7.263,0c0-3.208-2.927-4.029-3.5-8.643a.136.136,0,0,0-.264,0ZM7.246,1.647c-.573,4.614-3.5,5.434-3.5,8.643a3.631,3.631,0,0,0,7.262,0c0-3.208-2.927-4.029-3.5-8.643a.135.135,0,0,0-.262,0Zm13.456,0c-.573,4.614-3.5,5.435-3.5,8.643a3.631,3.631,0,0,0,7.262,0c0-3.208-2.927-4.029-3.5-8.643a.135.135,0,0,0-.262,0Z" transform="translate(-3.746 -1.544)"/></svg>